<?xml version="1.0" encoding="UTF-8" standalone="no"?>
<svg
   xmlns:dc="http://purl.org/dc/elements/1.1/"
   xmlns:cc="http://creativecommons.org/ns#"
   xmlns:rdf="http://www.w3.org/1999/02/22-rdf-syntax-ns#"
   xmlns:svg="http://www.w3.org/2000/svg"
   xmlns="http://www.w3.org/2000/svg"
   xmlns:sodipodi="http://sodipodi.sourceforge.net/DTD/sodipodi-0.dtd"
   xmlns:inkscape="http://www.inkscape.org/namespaces/inkscape"
   viewBox="0 0 60 60"
   version="1.1"
   id="svg6"
   sodipodi:docname="icon.svg"
   inkscape:version="0.92.2 5c3e80d, 2017-08-06">
  <metadata
     id="metadata12">
    <rdf:RDF>
      <cc:Work
         rdf:about="">
        <dc:format>image/svg+xml</dc:format>
        <dc:type
           rdf:resource="http://purl.org/dc/dcmitype/StillImage" />
      </cc:Work>
    </rdf:RDF>
  </metadata>
  <defs
     id="defs10" />
  <sodipodi:namedview
     pagecolor="#ffffff"
     bordercolor="#666666"
     borderopacity="1"
     objecttolerance="10"
     gridtolerance="10"
     guidetolerance="10"
     inkscape:pageopacity="0"
     inkscape:pageshadow="2"
     inkscape:window-width="1366"
     inkscape:window-height="714"
     id="namedview8"
     showgrid="false"
     inkscape:zoom="3.9333333"
     inkscape:cx="30"
     inkscape:cy="30"
     inkscape:window-x="0"
     inkscape:window-y="31"
     inkscape:window-maximized="1"
     inkscape:current-layer="svg6" />
  <path
     d="M 29.361111,7 C 23.363222,7 18.5,9.2885 18.5,12.111111 v 3.833334 H 30 V 18.5 H 12.111111 C 9.2885,18.5 7,23.363222 7,29.361111 7,35.359 9.2885,40.222222 12.111111,40.222222 h 5.111111 v -5.111111 c 0,-3.521556 2.867334,-6.388889 6.388888,-6.388889 h 11.5 c 2.830279,0 5.111112,-2.280833 5.111112,-5.111111 v -11.5 C 40.222222,9.2885 35.359,7 29.361111,7 Z M 24.25,10.194445 c 1.058,0 1.916667,0.858666 1.916667,1.916666 0,1.058 -0.858667,1.916667 -1.916667,1.916667 -1.058,0 -1.916667,-0.858667 -1.916667,-1.916667 0,-1.058 0.858667,-1.916666 1.916667,-1.916666 z"
     style="opacity:1;fill:#808080;fill-opacity:1;fill-rule:nonzero;stroke:none;stroke-width:1.27777779"
     id="path2"
     inkscape:connector-curvature="0" />
  <path
     d="m 42.777778,19.777778 v 5.111111 c 0,3.521556 -2.867334,6.388889 -6.388888,6.388889 h -11.5 c -2.830279,0 -5.111112,2.280833 -5.111112,5.111111 v 11.5 C 19.777778,50.7115 24.641,53 30.638889,53 36.636778,53 41.5,50.7115 41.5,47.888889 V 44.055555 H 30 V 41.5 H 47.88889 C 50.7115,41.5 53,36.636778 53,30.638889 53,24.641 50.7115,19.777778 47.88889,19.777778 M 35.75,45.972222 c 1.058,0 1.916667,0.858667 1.916667,1.916667 0,1.058 -0.858667,1.916666 -1.916667,1.916666 -1.058,0 -1.916667,-0.858666 -1.916667,-1.916666 0,-1.058 0.858667,-1.916667 1.916667,-1.916667 z"
     style="opacity:1;fill:#808080;fill-opacity:1;fill-rule:nonzero;stroke:none;stroke-width:1.27777779"
     id="path4"
     inkscape:connector-curvature="0" />
</svg>
